<svg xmlns="http://www.w3.org/2000/svg" width="1920" height="1080" viewBox="0 0 1920 1080">
  <defs>
    <linearGradient id="bgGradient" x1="50%" x2="50%" y1="0%" y2="100%">
      <stop offset="0%" stop-color="#0b2b4f" />
      <stop offset="100%" stop-color="#051836" />
    </linearGradient>
    <pattern id="gridPattern" width="40" height="40" patternUnits="userSpaceOnUse">
      <path d="M40 0H0V40" fill="none" stroke="#1f4c7d" stroke-width="1" opacity="0.35" />
    </pattern>
    <pattern id="gridPatternBold" width="200" height="200" patternUnits="userSpaceOnUse">
      <rect width="200" height="200" fill="none" stroke="#2b5d96" stroke-width="1.2" opacity="0.45" />
    </pattern>
  </defs>
  <rect width="1920" height="1080" fill="url(#bgGradient)" />
  <rect width="1920" height="1080" fill="url(#gridPattern)" />
  <rect width="1920" height="1080" fill="url(#gridPatternBold)" />
  <g stroke="#2565a7" stroke-width="1" opacity="0.4">
    <line x1="-200" y1="1080" x2="920" y2="-40" />
    <line x1="0" y1="1080" x2="1120" y2="-40" />
    <line x1="200" y1="1080" x2="1320" y2="-40" />
    <line x1="400" y1="1080" x2="1520" y2="-40" />
    <line x1="600" y1="1080" x2="1720" y2="-40" />
    <line x1="800" y1="1080" x2="1920" y2="-40" />
    <line x1="1000" y1="1080" x2="2120" y2="-40" />
  </g>
  <g stroke="#2b7ac7" stroke-width="1" opacity="0.2">
    <line x1="-200" y1="0" x2="920" y2="1120" />
    <line x1="0" y1="0" x2="1120" y2="1120" />
    <line x1="200" y1="0" x2="1320" y2="1120" />
    <line x1="400" y1="0" x2="1520" y2="1120" />
    <line x1="600" y1="0" x2="1720" y2="1120" />
    <line x1="800" y1="0" x2="1920" y2="1120" />
    <line x1="1000" y1="0" x2="2120" y2="1120" />
  </g>
</svg>

