<svg xmlns="http://www.w3.org/2000/svg" viewBox="0 0 1200 900" role="img" aria-labelledby="title desc">
  <title id="title">Invertor NEO klimatizace</title>
  <desc id="desc">Stylizovaná ilustrace nástěnné klimatizace Invertor NEO s nočním pozadím</desc>
  <defs>
    <radialGradient id="glow" cx="50%" cy="35%" r="65%">
      <stop offset="0%" stop-color="#334155" stop-opacity="0.9" />
      <stop offset="50%" stop-color="#1f2937" stop-opacity="0.95" />
      <stop offset="100%" stop-color="#0f172a" stop-opacity="1" />
    </radialGradient>
    <linearGradient id="bodyGradient" x1="0%" y1="0%" x2="0%" y2="100%">
      <stop offset="0%" stop-color="#f8fafc" />
      <stop offset="100%" stop-color="#e2e8f0" />
    </linearGradient>
    <linearGradient id="panelGradient" x1="0%" y1="0%" x2="0%" y2="100%">
      <stop offset="0%" stop-color="#dbeafe" />
      <stop offset="100%" stop-color="#cbd5f5" />
    </linearGradient>
    <filter id="shadow" x="-20%" y="-20%" width="140%" height="160%">
      <feGaussianBlur in="SourceAlpha" stdDeviation="35" result="blur" />
      <feOffset dy="20" result="offsetBlur" />
      <feComponentTransfer>
        <feFuncA type="linear" slope="0.35" />
      </feComponentTransfer>
      <feMerge>
        <feMergeNode in="offsetBlur" />
        <feMergeNode in="SourceGraphic" />
      </feMerge>
    </filter>
  </defs>
  <rect width="1200" height="900" fill="url(#glow)" />
  <g filter="url(#shadow)">
    <rect x="150" y="300" width="900" height="300" rx="72" fill="url(#bodyGradient)" />
    <rect x="210" y="360" width="780" height="120" rx="50" fill="url(#panelGradient)" />
    <rect x="230" y="380" width="740" height="80" rx="40" fill="#c7d2fe" opacity="0.85" />
    <rect x="260" y="415" width="680" height="22" rx="10" fill="#94a3b8" opacity="0.85" />
    <g fill="#cbd5f5" opacity="0.7">
      <rect x="240" y="470" width="720" height="12" rx="6" />
      <rect x="240" y="498" width="720" height="12" rx="6" />
      <rect x="240" y="526" width="720" height="12" rx="6" />
      <rect x="240" y="554" width="720" height="12" rx="6" />
    </g>
    <rect x="505" y="395" width="190" height="20" rx="8" fill="#94a3b8" opacity="0.7" />
    <g>
      <circle cx="840" cy="410" r="12" fill="#38bdf8" />
      <circle cx="876" cy="410" r="12" fill="#22d3ee" />
      <circle cx="912" cy="410" r="12" fill="#6366f1" />
    </g>
  </g>
</svg>
